<svg xmlns="http://www.w3.org/2000/svg" width="42" height="39"><path fill="#1A6E89" fill-rule="evenodd" d="M33.805 26.684a5.127 5.127 0 00-5.122 5.132 5.127 5.127 0 005.122 5.131 5.127 5.127 0 005.122-5.131 5.127 5.127 0 00-5.122-5.132M10.808 20.43c.063.52-.382 1.048-.932 1.108-2.725.375-4.722 2.56-4.722 5.163.01.493-.425.959-.944 1.01-.594.062-1.18-.445-1.17-1.01 0-3.577 2.802-6.62 6.548-7.136.642-.076 1.173.369 1.22.865m.46-4.008C5.045 16.421 0 21.476 0 27.711 0 33.945 5.045 39 11.268 39c6.223 0 11.269-5.055 11.269-11.29 0-6.234-5.046-11.289-11.269-11.289M32.365 6.105c.039.529-.428 1.043-.977 1.08-2.141.3-3.714 2.038-3.714 4.12.012.527-.476 1.016-1.024 1.027-.558.005-1.067-.49-1.056-1.027 0-3.066 2.353-5.682 5.506-6.125.658-.108 1.213.436 1.265.925m-.097-4.052c-5.374 0-9.731 4.365-9.731 9.75 0 5.384 4.357 9.75 9.731 9.75 5.375 0 9.732-4.366 9.732-9.75 0-5.385-4.357-9.75-9.732-9.75M11.268 0a5.127 5.127 0 00-5.122 5.132 5.127 5.127 0 005.122 5.131 5.127 5.127 0 005.122-5.131A5.127 5.127 0 0011.268 0"/></svg>