<svg xmlns="http://www.w3.org/2000/svg" width="58" height="58"><path fill="#1A6E89" fill-rule="evenodd" d="M35 52c-.011 1.902-1.483 3.468-3.36 3.573v.774A1.65 1.65 0 0130.004 58h-2.333a1.65 1.65 0 01-1.634-1.66v-.8C24.3 55.28 23.01 53.777 23 52zm.493-5c.538 0 1.036.286 1.305.75a1.49 1.49 0 010 1.5 1.51 1.51 0 01-1.305.75H23.507A1.503 1.503 0 0122 48.5c0-.828.675-1.5 1.507-1.5zm-6.5-32C36.729 15 43 21.525 43 29.58a15.038 15.038 0 01-1.291 6.12 14.657 14.657 0 01-2.405 3.756L35.75 45h-13.5l-3.555-5.544a14.657 14.657 0 01-2.672-4.402A15.038 15.038 0 0115 29.58C15 21.532 21.259 15 28.994 15zm18.215 24.695c.423-.67 1.353-.894 2.076-.503l6.01 3.223v.013c.686.398.91 1.227.504 1.876-.406.65-1.294.885-2.01.533l-6.037-3.223c-.723-.391-.966-1.25-.543-1.92zM9.8 39.163c.712-.352 1.596-.116 2 .533.403.65.181 1.48-.502 1.879l-6.004 3.213c-.465.27-1.05.283-1.528.034-.478-.25-.771-.722-.765-1.231.006-.51.311-.976.795-1.215L9.8 39.15zm18.584-21.6c-1.923.078-3.8.625-5.47 1.594-2.5 1.458-5.502 4.563-5.61 11.017-.007.375.133.737.39 1.007.256.27.608.426.977.433l.133-.007a1.406 1.406 0 001.26-1.381c.07-4.047 1.457-6.958 4.122-8.565a9.202 9.202 0 014.173-1.29l.025.018c.77 0 1.393-.632 1.393-1.413 0-.78-.624-1.414-1.393-1.414zM56.492 28c.833 0 1.508.672 1.508 1.5s-.675 1.5-1.508 1.5h-6.984A1.504 1.504 0 0148 29.5c0-.828.675-1.5 1.508-1.5zm-48 0c.833 0 1.508.672 1.508 1.5A1.51 1.51 0 018.492 31H1.508A1.504 1.504 0 010 29.5c0-.828.675-1.5 1.508-1.5zm45.241-11.81c.719-.388 1.642-.163 2.061.503.42.667.177 1.523-.541 1.913L49.27 21.81c-.234.125-.5.189-.77.184-.678.01-1.273-.412-1.449-1.019-.176-.607.111-1.248.7-1.56zm-50.532.505c.404-.648 1.288-.884 2-.532l6.01 3.238-.006-.02c.484.24.789.704.795 1.213.006.508-.287.98-.765 1.228a1.597 1.597 0 01-1.528-.034l-6.004-3.219c-.683-.397-.905-1.226-.502-1.874zM13.216 5.003c.474-.03.925.215 1.176.639l3.38 5.22c.273.419.303.962.078 1.41a1.287 1.287 0 01-1.147.728 1.276 1.276 0 01-1.076-.592l-3.374-5.234a1.426 1.426 0 01-.131-1.388c.2-.453.62-.753 1.094-.783zm30.448.578a1.26 1.26 0 011.779-.355c.578.422.73 1.25.344 1.869l-3.369 5.232a1.285 1.285 0 01-1.184.671 1.3 1.3 0 01-1.115-.792 1.42 1.42 0 01.153-1.405zM29.5 0c.828 0 1.5.675 1.5 1.508v6.984c0 .4-.158.783-.44 1.066a1.496 1.496 0 01-2.12 0A1.512 1.512 0 0128 8.492V1.508C28 .675 28.672 0 29.5 0z"/></svg>