<svg xmlns="http://www.w3.org/2000/svg" width="42" height="20"><path fill="#DD9C77" d="M40.519 2.697c.427-.787.804-1.602 1.203-2.404A1.42 1.42 0 0141.67.28c-.745.636-1.461 1.307-2.236 1.901-2.318 1.777-4.961 2.904-7.745 3.724-3.3.972-6.685 1.365-10.115 1.44-3.578.08-7.116-.211-10.586-1.122-3.05-.8-5.905-2.025-8.411-3.962C1.757 1.627 1.018.889.276.227c.011.029.046.116.083.201a26.134 26.134 0 004.29 6.701c.164.188.2.313.033.52-.464.575-.909 1.167-1.358 1.755-.47.613-.952 1.217-1.398 1.847-.329.467-.326.976-.04 1.475.237.413.614.565 1.07.55.43-.013.726-.265.974-.583.301-.386.595-.777.894-1.165L6.62 9.194c.089.058.157.092.213.14a21.152 21.152 0 004.562 3.074c.19.093.219.21.122.392-.21.392-.41.79-.613 1.187-.39.763-.807 1.514-1.159 2.295-.302.67.015 1.438.635 1.71.622.272 1.223.02 1.592-.668.087-.163.17-.328.256-.491.507-.984 1.012-1.97 1.52-2.954.109-.21.223-.395.527-.298 1.695.546 3.433.872 5.213.963.3.016.408.124.403.436a147.37 147.37 0 00-.002 3.559c.005.522.249.915.742 1.125.453.193.874.129 1.246-.196.32-.279.415-.656.418-1.058.009-1.164.01-2.328.005-3.492 0-.214.032-.354.289-.368a20.944 20.944 0 005.18-.968c.267-.086.411 0 .527.227.304.6.61 1.199.92 1.796.318.618.63 1.239.961 1.85.257.474.663.72 1.21.651.519-.065.83-.397.998-.872.156-.445.03-.852-.178-1.25-.528-1.01-1.053-2.022-1.578-3.034-.193-.373-.16-.405.206-.626a103.224 103.224 0 003.202-2.007c.494-.327.93-.741 1.414-1.133l.806 1.047c.67.87 1.336 1.745 2.016 2.61.299.38.703.546 1.186.432.463-.109.762-.413.885-.868.131-.485.002-.922-.301-1.315-.856-1.112-1.702-2.231-2.57-3.335-.207-.263-.21-.454.01-.705a23.524 23.524 0 003.036-4.353z"/></svg>