<svg width="35" height="18" xmlns="http://www.w3.org/2000/svg"><g fill="none" fill-rule="evenodd"><path d="M24.434 14c-.075 0-.15-.044-.224-.088-.186-.132-.26-.484-.149-.703a9.062 9.062 0 001.044-4.217 9.063 9.063 0 00-1.044-4.217c-.112-.22-.074-.571.15-.703a.397.397 0 01.596.176C25.59 5.654 26 7.323 26 8.992c0 1.713-.41 3.338-1.193 4.744-.112.176-.224.264-.373.264m-13.967 0c-.134 0-.234-.083-.334-.208C9.4 12.417 9 10.792 9 9.125c0-1.667.4-3.292 1.133-4.667.134-.208.367-.291.534-.125.166.167.233.459.1.667-.667 1.208-1 2.667-1 4.125a8.9 8.9 0 001 4.125c.133.208.066.542-.1.667-.067.041-.134.083-.2.083m7.057-8.738c-1.243 1.23-3.38 3.69-3.38 4.878 0 1.57 1.491 2.884 3.38 2.884 1.84 0 3.381-1.272 3.381-2.884 0-1.188-2.138-3.606-3.38-4.878m0 8.738C15.037 14 13 12.26 13 10.14c0-1.994 3.68-5.557 4.077-5.98.199-.213.646-.213.845 0C18.32 4.54 22 8.145 22 10.14c.05 2.12-1.989 3.86-4.475 3.86" fill="#943F20"/><path d="M33.682 8.556c-1.741-1.64-7.822-6.834-15.226-7.258a16.878 16.878 0 00-.956-.031c-.321 0-.64.013-.956.031C9.14 1.722 3.06 6.917 1.318 8.556A.975.975 0 001 9.267c0 .265.113.518.318.711 1.741 1.64 7.82 6.834 15.224 7.258.317.018.636.031.958.031.322 0 .64-.013.958-.03 7.403-.425 13.483-5.62 15.224-7.259a.973.973 0 00.318-.71.976.976 0 00-.318-.712z" stroke="#943F20"/></g></svg>