<svg xmlns="http://www.w3.org/2000/svg" xmlns:xlink="http://www.w3.org/1999/xlink" width="42" height="37"><defs><path id="a" d="M0 0h42v37H0z"/></defs><g fill="none" fill-rule="evenodd"><mask id="b" fill="#fff"><use xlink:href="#a"/></mask><path fill="#DD9C77" d="M33.202 10.263c.422 2.461 2.736 4.111 5.168 3.684a4.448 4.448 0 002.392-1.252 4.56 4.56 0 00-.144-6.395 4.433 4.433 0 00-6.172-.004 4.499 4.499 0 00-1.244 2.424h-5.408a.763.763 0 00-.664.386l-2.83 4.963h-5.66a.76.76 0 00-.664.385l-2.83 4.963H9.928L7.32 14.84l2.83-4.963a.778.778 0 000-.771L9.486 8.01l.076-.062a4.67 4.67 0 00.084-6.55 4.54 4.54 0 00-6.472-.083 4.67 4.67 0 00-.084 6.549 4.54 4.54 0 005.13 1.002l.358.618-2.83 4.963a.782.782 0 000 .772L8.8 20.567c.14.25.404.402.687.394h5.66l2.61 4.577-2.61 4.577H8.922c-.422-2.474-2.746-4.135-5.19-3.708-2.446.426-4.087 2.777-3.666 5.252.421 2.474 2.745 4.135 5.19 3.708a4.518 4.518 0 003.666-3.708h6.224l2.83 4.955c.138.24.39.387.664.386h6.103a.76.76 0 00.663-.386l2.83-4.964h5.66a.76.76 0 00.664-.386l3.051-5.348a.778.778 0 000-.772l-3.05-5.348a.759.759 0 00-.665-.379h-5.66l-2.609-4.577 2.61-4.577h4.965z" mask="url(#b)"/></g></svg>