<svg width="35" height="17" xmlns="http://www.w3.org/2000/svg"><path d="M17.546 7.08a1.4 1.4 0 011.39-1.41 1.4 1.4 0 011.392 1.41 1.4 1.4 0 01-1.391 1.41 1.4 1.4 0 01-1.391-1.41zm-4.42 1.42c0 2.447 1.958 4.43 4.374 4.43 2.416 0 4.374-1.983 4.374-4.43 0-2.447-1.958-4.43-4.374-4.43-2.416 0-4.374 1.983-4.374 4.43zm19.127 1.754l-.008-.022a.328.328 0 00-.131-.158l-.76-.47-.098-.716a.324.324 0 00-.204-.26l-1.187-.457a.319.319 0 00-.414.187.325.325 0 00.186.419l1.01.39.092.68a.325.325 0 00.15.232l.8.493.036.095a32.505 32.505 0 01-3.017 2.053c-.019-.036-.034-.073-.064-.099l-.515-.455-.134-.794a.324.324 0 00-.165-.232l-.777-.42a.319.319 0 00-.433.135.327.327 0 00.132.44l.637.343.127.752c.013.074.05.14.105.19l.531.468c-1.719.983-3.706 1.89-5.87 2.471a8.56 8.56 0 003.643-7.02 8.56 8.56 0 00-3.644-7.019c2.533.68 4.824 1.807 6.725 2.978l-.19.611-.833.228a.323.323 0 00-.194.152l-.46.809-.42.203a.327.327 0 00-.15.433.32.32 0 00.427.153l.51-.247a.32.32 0 00.14-.131l.442-.78.874-.24a.322.322 0 00.222-.215l.194-.62a32.46 32.46 0 014.541 3.533c.036.033.079.087.079.152 0 .067-.043.12-.079.154-.403.38-1.038.948-1.856 1.601zM17.5 16.213a7.5 7.5 0 01-.936-.065c-3.757-.47-6.677-3.717-6.677-7.648 0-3.932 2.921-7.18 6.68-7.649.306-.038.616-.064.933-.064.317 0 .627.026.934.064 3.758.469 6.679 3.717 6.679 7.649 0 3.931-2.92 7.178-6.677 7.648a7.5 7.5 0 01-.936.065zm-9.753-2.9a.33.33 0 00.088-.188l.099-.86.625-.419a.327.327 0 00.143-.297l-.1-1.219a.317.317 0 00-.344-.298.324.324 0 00-.294.35l.084 1.029-.593.396a.325.325 0 00-.141.233l-.103.901-.192.202a31.747 31.747 0 01-3.48-2.276l.12-.05a.324.324 0 00.135-.103l.627-.83L5.61 9.59a.321.321 0 00.216-.182l.513-1.157a.327.327 0 00-.161-.43.32.32 0 00-.425.164l-.448 1.013-1.145.284a.32.32 0 00-.178.118l-.642.849-.396.162A30.796 30.796 0 01.89 8.653C.855 8.62.812 8.566.812 8.5c0-.065.043-.119.079-.152a32.3 32.3 0 014.373-3.425l1.382.521.364 1.029a.322.322 0 00.23.207l1.434.335a.322.322 0 00.385-.244.324.324 0 00-.24-.389l-1.265-.295L7.2 5.082a.323.323 0 00-.19-.195l-1.062-.4c1.91-1.181 4.218-2.32 6.772-3.007A8.56 8.56 0 009.075 8.5a8.56 8.56 0 003.644 7.02c-1.855-.499-3.578-1.237-5.116-2.056l.144-.151zM18.514.033A17.87 17.87 0 0017.5 0c-.34 0-.678.013-1.013.032C8.634.482 2.185 6.002.338 7.744A1.038 1.038 0 000 8.5c0 .283.12.551.338.757 1.846 1.741 8.294 7.26 16.146 7.711.336.02.675.033 1.016.033.342 0 .68-.013 1.016-.033 7.852-.451 14.3-5.97 16.146-7.711.218-.206.338-.474.338-.757 0-.281-.12-.549-.338-.755C32.816 6.002 26.366.483 18.514.032z" fill="#943F20" fill-rule="evenodd"/></svg>