<svg xmlns="http://www.w3.org/2000/svg" width="22" height="44"><g fill="#1A6E89" fill-rule="evenodd"><path d="M11 19.23c-4.546 0-8.243-3.696-8.243-8.238 0-4.541 3.698-8.236 8.243-8.236 4.546 0 8.244 3.695 8.244 8.236 0 4.542-3.697 8.237-8.244 8.237M11 1C5.486 1 1 5.482 1 10.991c0 3.257 1.606 6.322 4.298 8.197l.176.124L11 43l5.529-23.69.176-.123A10.004 10.004 0 0021 10.991C21 5.482 16.514 1 11 1"/><path d="M17.455 19.346L11.544 44h-1.087L4.55 19.349C1.697 17.332 0 14.113 0 10.696 0 4.797 4.935 0 11 0c6.068 0 11 4.797 11 10.696 0 3.417-1.695 6.634-4.545 8.65"/><path d="M12 4c-3.86 0-7 3.14-7 7s3.142 7 7 7c3.86 0 7-3.14 7-7s-3.14-7-7-7"/></g></svg>