<svg xmlns="http://www.w3.org/2000/svg" width="25" height="45"><g fill="#1A6E89" fill-rule="evenodd"><path d="M1.736 39c-.25 0-.505-.054-.745-.166a1.68 1.68 0 01-.823-2.259c.23-.48 2.383-4.71 6.388-5.439 2.336-.424 4.666.431 6.93 2.543 1.498 1.395 2.9 1.991 4.17 1.773 2.02-.345 3.644-2.71 4.051-3.511.431-.84 1.473-1.18 2.333-.762a1.686 1.686 0 01.777 2.282c-.096.189-2.408 4.632-6.563 5.342-2.416.415-4.827-.483-7.163-2.661-1.41-1.315-2.719-1.874-3.89-1.664-1.93.344-3.466 2.685-3.895 3.557-.3.609-.922.965-1.57.965m0-10.991a1.82 1.82 0 01-.745-.16c-.865-.387-1.234-1.356-.824-2.17.232-.46 2.386-4.526 6.394-5.225 2.337-.406 4.669.414 6.935 2.443 1.498 1.34 2.902 1.913 4.172 1.705 2.023-.333 3.646-2.605 4.056-3.375.428-.807 1.473-1.134 2.332-.73.86.402 1.208 1.383.779 2.19-.098.181-2.41 4.45-6.566 5.133-2.42.398-4.83-.464-7.17-2.558-1.412-1.26-2.721-1.8-3.894-1.598-1.93.33-3.467 2.58-3.897 3.418-.3.585-.922.927-1.571.927m0-11.533c-.25 0-.505-.052-.746-.16-.865-.387-1.234-1.356-.824-2.17.232-.461 2.386-4.526 6.394-5.225 2.337-.408 4.669.414 6.935 2.443 1.498 1.34 2.902 1.913 4.172 1.703 2.023-.331 3.646-2.603 4.056-3.373.428-.808 1.473-1.134 2.332-.732.86.404 1.208 1.385.779 2.192-.098.182-2.41 4.45-6.566 5.133-2.42.398-4.83-.464-7.17-2.557-1.412-1.262-2.721-1.8-3.894-1.599-1.93.33-3.467 2.58-3.897 3.418-.3.585-.922.927-1.571.927"/><path d="M10.409 44.47a1.93 1.93 0 00.34-.413c10.17-16.34 7.16-30.419.012-42.323a1.958 1.958 0 00-2.726-.684l-.01.006c-.931.589-1.22 1.84-.643 2.793l.001.004c6.719 11.186 9.467 22.83.01 38.022-.588.945-.318 2.2.605 2.802l.008.006a1.95 1.95 0 002.403-.213"/></g></svg>