<svg width="75" height="64" xmlns="http://www.w3.org/2000/svg"><g fill="#943F20"><path d="M21.943 42.888c-4.987 0-9.06-4.072-9.06-9.06V10.39H6.816c-1.164 0-2.245.249-3.159.83-2.077 1.082-3.49 3.326-3.49 5.82v26.764c0 2.493 1.412 4.654 3.49 5.818.914.498 1.995.83 3.159.83h7.23v12.8l13.133-12.8h25.766c.416 0 .832-.082 1.247-.165l-7.48-7.315h-24.77v-.083z"/><path d="M74.473 5.652c-.083-.416-.25-.831-.416-1.247-.083-.166-.166-.415-.25-.582-.332-.581-.664-1.08-1.163-1.496a8.693 8.693 0 00-.997-.83c-.333-.25-.748-.416-1.08-.583-.749-.332-1.663-.498-2.577-.498H21.943c-.914 0-1.746.166-2.577.498-.415.167-.748.333-1.08.582-.333.25-.665.499-.998.831-.415.416-.83.998-1.163 1.496-.083.167-.167.416-.25.582-.166.416-.332.831-.415 1.247-.083.416-.166.831-.166 1.33v26.764c0 3.657 2.992 6.566 6.566 6.566h25.766l8.977 8.727 4.155 3.99v-12.8h7.232c.914 0 1.745-.167 2.576-.5a4.458 4.458 0 001.08-.58c.333-.25.666-.5.998-.832.416-.416.831-.998 1.164-1.496.083-.166.166-.416.25-.582.165-.416.332-.831.415-1.247.083-.415.166-.831.166-1.33V6.982c0-.416-.083-.914-.166-1.33zM43.055 32.083c-1.164 0-1.995-.914-1.995-1.995 0-1.08.914-1.994 1.995-1.994 1.08 0 1.994.914 1.994 1.994s-.83 1.995-1.994 1.995zm5.818-13.299a17.865 17.865 0 01-2.743 2.91c-.582.498-.914.997-1.08 1.412a5.03 5.03 0 00-.167 1.247.745.745 0 01-.748.748h-2.078c-.415 0-.748-.332-.748-.83.083-.998.166-1.746.416-2.245.332-.582.997-1.33 2.16-2.327a10.107 10.107 0 001.83-2.161c.415-.665.664-1.413.664-2.244 0-.998-.25-1.746-.748-2.245-.499-.498-1.247-.748-2.244-.748-.831 0-1.58.25-2.078.665-.415.333-.665.748-.831 1.33-.083.333-.333.665-.748.665h-2.078c-.499 0-.831-.416-.748-.831.166-1.413.748-2.577 1.745-3.408 1.164-.997 2.743-1.496 4.738-1.496 2.161 0 3.74.499 4.904 1.58 1.164 1.08 1.745 2.493 1.745 4.404-.083 1.247-.415 2.494-1.163 3.574z"/></g></svg>