<svg width="34" height="18" xmlns="http://www.w3.org/2000/svg" xmlns:xlink="http://www.w3.org/1999/xlink"><defs><path id="a" d="M0 .364h33.664V18H0z"/></defs><g fill="none" fill-rule="evenodd"><mask id="b" fill="#fff"><use xlink:href="#a"/></mask><path d="M31.3 9.25l-2.966-.154-1.526 1.08 1.151.882 2.45-.451a.236.236 0 01.274.18.227.227 0 01-.187.263l-2.554.47a.242.242 0 01-.19-.045l-1.376-1.053-3.541.1-.001.002a5.726 5.726 0 01-.458 1.27l1.999.182c.03.003.06.011.087.025l1.607.821 1.757-.145c.135-.005.242.082.254.206a.229.229 0 01-.214.244l-1.826.15-.02.001a.237.237 0 01-.11-.026l-1.626-.831-2.147-.195a6.017 6.017 0 01-1.583 1.72l1.297 1.15 1.567.228 1.075-.61a.238.238 0 01.32.079.22.22 0 01-.081.309l-1.147.652a.239.239 0 01-.154.029l-1.563-.228.059.969a.229.229 0 01-.22.238h-.015a.23.23 0 01-.233-.212l-.077-1.257-1.22-1.08a6.267 6.267 0 01-2.775.919l.384 1.108a.22.22 0 01-.03.2l-.548.753a.239.239 0 01-.327.056.22.22 0 01-.058-.314l.48-.66-.388-1.119c-.023 0-.044.004-.067.004a6.306 6.306 0 01-3-.755h-.001l-.277 1.277a.226.226 0 01-.117.152l-1.382.727a.24.24 0 01-.318-.09.221.221 0 01.093-.306l1.287-.677.288-1.332a5.995 5.995 0 01-2.183-2.496l-2.148 1.77-.45 1.588a.234.234 0 01-.226.167.255.255 0 01-.062-.008.225.225 0 01-.165-.277l.366-1.292-2.118.022h-.003a.23.23 0 01-.235-.223.23.23 0 01.232-.228l2.286-.024c.006-.006.008-.016.015-.021l.984-.811-1.65-.417-3.234.543a.232.232 0 01-.271-.184.226.226 0 01.19-.26l3.285-.552a.229.229 0 01.1.004l2.013.508.909-.749a5.75 5.75 0 01-.337-1.54l-2.338-.155-2.625.594a.24.24 0 01-.098.002l-3.468-.651A.226.226 0 011.99 9.2a.233.233 0 01.275-.178l3.418.642 2.174-.492-2.34-1.334-2.387-.023a.23.23 0 01-.232-.229c.001-.124.097-.212.237-.223l2.45.025c.042 0 .082.011.118.031l2.922 1.666 2.06.137a5.685 5.685 0 01.39-2.037L9.485 5.86H7.068c-.05 0-.1-.016-.141-.045l-.939-.677a.22.22 0 01-.047-.316c.078-.1.225-.12.329-.046l.876.632h2.24l.318-1.22-.86-.964a.22.22 0 01.026-.318.242.242 0 01.33.024l.94 1.053a.22.22 0 01.048.201l-.356 1.37 1.432 1.193a6.04 6.04 0 012.811-2.78h.001L13.03 2.673l-1.254-.33a.225.225 0 01-.164-.278.236.236 0 01.288-.158l1.111.293.246-.769a.236.236 0 01.293-.15.224.224 0 01.155.283l-.276.865 1.086 1.343.002-.001a6.345 6.345 0 014.189-.155l.38-.535-.783-1.455a.223.223 0 01.101-.304.24.24 0 01.317.097l.666 1.238.86-1.212a.24.24 0 01.327-.059.22.22 0 01.06.314l-1.473 2.076c.716.282 1.361.69 1.912 1.196l-.001-.001.006.004 1.256-.967.222-1.41a.239.239 0 01.267-.19.228.228 0 01.197.257l-.206 1.307 1.19.361 1.471-.914a.24.24 0 01.324.068.22.22 0 01-.07.312l-1.563.97a.243.243 0 01-.198.026l-1.367-.415-1.197.921a5.822 5.822 0 011.385 2.501c.022.081.047.16.065.243 1.16-.414 2.663-.938 3.107-1.04l1.327-1.804a.24.24 0 01.327-.053.22.22 0 01.056.314l-1.12 1.522c1.051-.006 3.43-.023 3.43-.023v.006l.012-.003c.129 0 .232.1.232.222a.227.227 0 01-.232.222l-.01-.002v.007s-3.676.025-3.912.025c-.176.024-1.681.54-3.144 1.063.032.244.055.492.055.745 0 .28-.028.552-.067.821l3.39-.095 1.818-1.288a.248.248 0 01.152-.044l3.05.158a.227.227 0 01.22.237.232.232 0 01-.246.215M0 9.183c9.303 11.756 24.36 11.756 33.664 0C24.361-2.576 9.304-2.576 0 9.183" fill="#943F20" mask="url(#b)"/></g></svg>