<svg xmlns="http://www.w3.org/2000/svg" width="39" height="45"><path fill="#DD9C77" fill-rule="evenodd" d="M20.234 1.171c-.582-.427-1.358 0-1.31.665.388 3.703.68 6.979.243 9.685-.436 3.18-1.745 5.364-3.685 9.02-.92 1.803-2.084 4.082-2.424 7.025a15.175 15.175 0 001.26 7.501c1.698 3.845 4.413 6.884 7.855 8.83.582.332 1.26-.19 1.164-.854-.776-3.703-1.455-6.931-1.6-9.875-.049-1.661.048-3.133.387-4.32.243-.997.922-2.373 1.843-4.13.872-1.756 1.94-3.845 2.52-6.266.631-2.422.68-5.08.146-7.501-1.018-4.13-3.345-7.406-6.4-9.78M8.807.27a.78.78 0 00-1.369.477c-.143 2.623-.284 4.913-.898 6.82-.66 2.337-1.84 3.816-3.681 6.344-.85 1.24-1.935 2.814-2.549 5.008a11.873 11.873 0 00.095 5.771c.755 2.91 2.265 5.295 4.342 7.107.519.477 1.321.048 1.321-.62-.141-2.67-.236-5.008-.047-7.107.142-1.24.378-2.337.755-3.195.283-.716.944-1.67 1.794-2.862.802-1.193 1.793-2.671 2.501-4.388a12.533 12.533 0 00.897-5.581C11.779 4.896 10.599 2.32 8.806.269m29.991 20.166c-.587-2.994-2.153-5.418-4.209-7.224-.538-.475-1.42-.095-1.37.618.195 2.614.293 4.895-.098 6.844-.391 2.376-1.469 3.992-3.035 6.701-.734 1.331-1.664 3.042-2.006 5.229-.245 2.09.098 3.992.782 5.703a14.341 14.341 0 005.336 6.559c.587.38 1.37-.095 1.272-.76-.44-2.615-.881-4.944-.881-7.035 0-1.236.098-2.376.392-3.28.244-.76.783-1.758 1.517-3.041.685-1.283 1.566-2.852 2.055-4.658.49-1.853.588-3.85.245-5.656"/></svg>