<svg width="30" height="30" xmlns="http://www.w3.org/2000/svg"><g fill="#943F20" fill-rule="evenodd"><path d="M26 16h4v-1h-4zM0 16h4v-1H0zM15 4h1V0h-1zm7 2.889L24.889 4 26 5.111 23.111 8zm-18 18L6.889 22 8 23.111 5.111 26zM4 5.111L5.111 4 8 6.889 6.889 8zm18 18L23.111 22 26 24.889 24.889 26z"/><path d="M12.298 24.891c-.105-1.304-.774-2.5-1.9-3.442-2.005-1.667-3.096-4.13-2.99-6.775.175-4.13 3.518-7.573 7.564-7.862 2.287-.145 4.434.652 6.087 2.246a8.258 8.258 0 012.534 5.978 8.387 8.387 0 01-2.956 6.377c-1.161.978-1.83 2.174-1.935 3.478h-6.404zm.035 1.848h6.334v-.362h-6.334v.362zm0 1.812h6.334v-.362h-6.334v.362zm7.741 0V25.29c0-1.014.493-1.957 1.443-2.754 2.216-1.848 3.483-4.565 3.483-7.5a9.732 9.732 0 00-2.956-7.029c-1.935-1.884-4.468-2.826-7.142-2.645-4.75.29-8.656 4.348-8.867 9.24a9.707 9.707 0 003.519 7.97c.633.544 1.407 1.414 1.407 2.718v3.26c0 .834.598 1.45 1.372 1.45h6.404c.739 0 1.337-.616 1.337-1.45z"/></g></svg>