<svg width="20" height="26" xmlns="http://www.w3.org/2000/svg"><path d="M4.112 15.178c-.414.005-.755.285-.787.647-.224 2.186.953 4.608 2.825 5.807a.88.88 0 001.13-.06c.293-.29.263-.733-.068-.99a.82.82 0 00-.125-.081c-1.225-.784-2.325-2.949-2.162-4.544.048-.386-.268-.733-.708-.775a.868.868 0 00-.105-.004zM10 1.82c4.477 4.57 8.4 9.85 8.4 14.334 0 4.716-3.812 8.441-8.4 8.441-4.589 0-8.4-3.725-8.4-8.44C1.6 11.67 5.523 6.388 10 1.82zM9.875.009a.834.834 0 00-.475.23C4.576 5.037 0 10.744 0 16.154 0 21.541 4.432 26 10 26c5.567 0 10-4.459 10-9.846 0-5.41-4.577-11.117-9.4-15.915a.866.866 0 00-.725-.23z" fill="#943F20" fill-rule="evenodd"/></svg>