<?xml version="1.0" encoding="utf-8"?>
<!-- Generator: Adobe Illustrator 25.0.0, SVG Export Plug-In . SVG Version: 6.00 Build 0)  -->
<svg version="1.1" id="Layer_1" xmlns="http://www.w3.org/2000/svg" xmlns:xlink="http://www.w3.org/1999/xlink" x="0px" y="0px"
	 viewBox="0 0 869.3 83.6" style="enable-background:new 0 0 869.3 83.6;" xml:space="preserve">
<style type="text/css">
	.st0{fill:#FFFFFF;}
</style>
<g>
	<g id="Desktop">
		<g id="Splash-Screen_Desktop-HD" transform="translate(-278.000000, -688.000000)">
			<g id="DryEyeland_Logo_KO-01" transform="translate(278.000000, 688.000000)">
				<path id="Shape" class="st0" d="M784.1,61.1c-0.6,0-1.1-0.2-1.6-0.6c-0.4-0.4-0.7-0.9-0.7-1.5V26.5c0-0.6,0.2-1.1,0.7-1.5
					c0.4-0.4,1-0.6,1.6-0.6h4.8c1.9,0,3.7,0.1,5.6,0.4c1.8,0.3,3.6,0.9,5.4,1.7s3.3,1.8,4.7,3.2c1.4,1.5,2.5,3.3,3.1,5.3
					c0.9,2.5,1.3,5.1,1.3,7.7c0,2.3-0.3,4.5-0.8,6.7c-0.5,1.8-1.2,3.4-2.3,4.9c-1,1.3-2.1,2.4-3.4,3.3c-1.3,0.9-2.7,1.6-4.2,2.1
					s-3,0.8-4.6,1.1c-1.5,0.2-3.1,0.3-4.7,0.3H784.1z M788.9,13.8H773c-0.6,0-1.1,0.2-1.6,0.6c-0.4,0.4-0.7,0.9-0.7,1.5v53.6
					c0,0.6,0.2,1.1,0.7,1.5c0.4,0.4,1,0.6,1.6,0.6h15.9c9.6,0,17.2-2.6,22.8-7.7c5.6-5.2,8.3-12.2,8.3-21.2c0-9.5-3.1-16.9-9.3-22.1
					C805.1,16.1,797.9,13.8,788.9,13.8 M722.1,14c-0.4,0-0.7,0.1-1.1,0.3c-0.3,0.2-0.6,0.5-0.8,0.8c-0.2,0.3-0.3,0.6-0.3,1V49
					c0,0.4-0.3,0.7-0.6,0.8c-0.4,0.2-0.8,0.1-1.1-0.2L687,14.7c-0.4-0.4-1-0.7-1.7-0.7h-2.5c-0.6,0-1.2,0.2-1.6,0.6
					c-0.4,0.4-0.7,0.9-0.6,1.5v53.3c0,0.6,0.2,1.1,0.6,1.5c0.4,0.4,1,0.7,1.6,0.6h6.6c0.6,0,1.2-0.2,1.6-0.6
					c0.4-0.4,0.6-0.9,0.6-1.5V38.6c0-0.4,0.3-0.7,0.6-0.8c0.4-0.2,0.8-0.1,1,0.2l29.2,32.6c0.4,0.5,1,0.8,1.7,0.8h4.6
					c0.6,0,1.1-0.2,1.6-0.6c0.4-0.4,0.7-0.9,0.7-1.5V16c0-0.4-0.1-0.7-0.3-1s-0.5-0.6-0.8-0.8s-0.7-0.3-1.1-0.3L722.1,14z
					 M606.9,52.1c-0.9,0-1.2-0.4-0.9-1.3c3-7.9,5.4-14.2,7.3-19.1c0.3-0.6,0.6-0.9,1-0.9c0.4,0,0.7,0.3,0.9,0.9
					c2.7,6.4,5.2,12.8,7.6,19.1c0.3,0.8,0,1.3-1,1.3C616.5,52.1,611.5,52.1,606.9,52.1 M689.1,63.3c-0.7-1-2.1-1.3-3.1-0.7
					c-0.6,0.2-1.6,0.6-3.1,1.3c-1.5,0.7-2.6,1.2-3.4,1.5c-0.8,0.3-1.7,0.7-3,1.1c-1.1,0.4-2.3,0.7-3.5,0.9c-1.1,0.2-2.3,0.3-3.4,0.4
					c-6.4,0.4-12.8-0.8-18.7-3.3c-5.8-2.6-10.8-7-15-13.3c-1.6-2.8-3.1-5.6-4.4-8.6c-0.1-0.1-1-2.5-2.9-7.3l0.2,0.4l-0.8-2
					c-0.5-1.2-1.7-4.2-3.6-9s-3.2-8.1-3.9-9.8c-0.3-1-1.1-1.6-2.1-1.6c-0.7,0.1-2.1,0.1-4,0c-1.3-0.1-2.7-0.1-4,0.1
					c-1,0-1.8,0.6-2.1,1.5c-7.9,19.8-14.8,37.6-20.8,53.5c-0.6,1.6,0.1,2.6,2.1,2.8c2.3,0.2,4.5,0.2,6.8,0.1c0.4,0,0.9-0.2,1.3-0.4
					c0.4-0.3,0.7-0.6,0.9-1.1c0.2-0.4,0.4-1,0.7-1.8c0.3-0.8,0.5-1.4,0.8-2.1c0.2-0.6,0.5-1.2,0.8-1.8c0.4-0.8,1.2-1.4,2.2-1.5
					c7.5-0.1,15-0.1,22.7,0h0.2c3.7,0.6,7.2,2.2,10.1,4.5c0,0.1,0.1,0.1,0.2,0.1c0.1,0.1,0.1,0.2,0.2,0.2c1.2,1,2.5,1.9,3.8,2.7
					c3.4,1.9,5.6,3.1,6.7,3.5c3.9,1.6,7.9,2.8,12,3.5c3.8,0.6,7.7,0.7,11.6,0.3c7.3-1.2,13.6-2.8,20-6.3
					C691,70.9,689.1,63.3,689.1,63.3 M522.4,61c-0.6,0-1.1-0.2-1.5-0.6c-0.4-0.4-0.7-0.9-0.7-1.5V16.1c0-0.6-0.3-1.1-0.7-1.5
					c-0.4-0.4-1-0.6-1.5-0.6h-6.6c-0.6,0-1.1,0.2-1.6,0.6c-0.4,0.4-0.7,0.9-0.7,1.5v53.2c0,0.6,0.2,1.1,0.7,1.5
					c0.4,0.4,1,0.6,1.6,0.6h34.2c0.6,0,1.2-0.2,1.6-0.6c0.4-0.4,0.6-0.9,0.6-1.5v-6.1c0-0.3-0.1-0.6-0.1-0.8
					c-0.1-0.3-0.3-0.5-0.5-0.7s-0.5-0.3-0.7-0.4c-0.3-0.1-0.6-0.2-0.9-0.2L522.4,61L522.4,61z M470.9,24.4c0.4,0,0.8-0.1,1.1-0.3
					c0.3-0.2,0.6-0.5,0.8-0.8c0.2-0.3,0.3-0.7,0.3-1.1v-6.3c0-0.6-0.2-1.1-0.6-1.5c-0.4-0.4-1-0.7-1.6-0.6h-35.3
					c-0.6,0-1.1,0.2-1.6,0.6c-0.4,0.4-0.7,0.9-0.7,1.5v53.5c0,0.4,0.1,0.8,0.3,1.1c0.2,0.3,0.5,0.6,0.8,0.8c0.3,0.2,0.7,0.3,1.1,0.2
					h35.4c0.6,0,1.2-0.2,1.6-0.6s0.7-0.9,0.6-1.5v-6.2c0-0.6-0.2-1.1-0.6-1.5c-0.4-0.4-1-0.7-1.6-0.6h-24.2c-0.6,0-1.1-0.2-1.6-0.6
					c-0.4-0.4-0.7-0.9-0.7-1.5v-7.8c0-0.6,0.2-1.1,0.7-1.5c0.4-0.4,1-0.6,1.6-0.6h13.8c0.4,0,0.8-0.1,1.1-0.3
					c0.3-0.2,0.6-0.5,0.8-0.8c0.2-0.3,0.3-0.7,0.3-1.1v-6.3c0-0.6-0.2-1.1-0.7-1.5c-0.4-0.4-1-0.6-1.6-0.6h-13.8
					c-0.6,0-1.1-0.2-1.6-0.6c-0.4-0.4-0.7-0.9-0.7-1.5v-9.7c0-0.6,0.2-1.1,0.7-1.5c0.4-0.4,1-0.6,1.6-0.6L470.9,24.4z M388.1,14
					c-0.8,0-1.5,0.4-2,1.1l-11.2,19c-0.3,0.5-0.8,0.6-1.3,0.4c-0.2-0.1-0.3-0.2-0.4-0.4l-11.2-19c-0.4-0.7-1.2-1.1-2-1.1h-7.6
					c-0.8,0-1.5,0.3-1.9,1c-0.4,0.6-0.4,1.4,0,2.1l17.7,30c0.2,0.3,0.3,0.7,0.3,1.1v21.4c0,0.6,0.2,1.1,0.6,1.5
					c0.4,0.4,1,0.6,1.5,0.6h6.7c0.4,0,0.8-0.1,1.1-0.3c0.3-0.2,0.6-0.4,0.8-0.7c0.2-0.3,0.3-0.6,0.3-1V48.2c0-0.4,0.1-0.7,0.3-1.1
					l17.6-30c0.5-0.6,0.5-1.5,0-2.1c-0.4-0.7-1.2-1.1-2-1H388.1z M312.7,24.4c0.4,0,0.8-0.1,1.1-0.3c0.3-0.2,0.6-0.5,0.8-0.8
					c0.2-0.3,0.3-0.7,0.3-1.1v-6.3c0-0.6-0.2-1.1-0.6-1.5c-0.4-0.4-1-0.6-1.6-0.6h-35.4c-0.6,0-1.1,0.2-1.6,0.6
					c-0.4,0.4-0.7,0.9-0.7,1.5v53.5c0,0.4,0.1,0.8,0.3,1.1c0.2,0.3,0.5,0.6,0.8,0.8c0.3,0.2,0.7,0.3,1.1,0.2h35.4
					c0.6,0,1.2-0.2,1.6-0.6c0.4-0.4,0.6-0.9,0.6-1.5v-6.2c0-0.6-0.2-1.1-0.6-1.5c-0.4-0.4-1-0.6-1.6-0.6h-24.3
					c-0.6,0-1.2-0.2-1.6-0.6c-0.4-0.4-0.7-0.9-0.7-1.5v-7.8c0-0.6,0.2-1.1,0.7-1.5c0.4-0.4,1-0.6,1.6-0.6h13.8
					c0.4,0,0.8-0.1,1.1-0.3c0.3-0.2,0.6-0.5,0.8-0.8c0.2-0.3,0.3-0.7,0.3-1.1v-6.3c0-0.6-0.2-1.1-0.7-1.5c-0.4-0.4-1-0.6-1.6-0.6
					h-13.8c-0.6,0-1.1-0.2-1.6-0.6c-0.4-0.4-0.7-0.9-0.7-1.5v-9.7c0-0.6,0.2-1.1,0.7-1.5c0.4-0.4,1-0.6,1.6-0.6L312.7,24.4z
					 M212.4,14c-0.8,0-1.5,0.4-1.9,1.1l-11.2,19c-0.2,0.3-0.5,0.5-0.8,0.5c-0.3,0-0.7-0.2-0.8-0.5l-11.2-19
					c-0.4-0.7-1.1-1.1-1.9-1.1h-7.7c-0.8,0-1.5,0.3-1.9,1c-0.4,0.6-0.4,1.4-0.1,2.1l17.7,30c0.2,0.3,0.3,0.7,0.3,1.1v21.4
					c0,0.6-1.8,1.1-1.4,1.5c0.4,0.4,1,0.6,1.5,0.6h8.7c0.4,0,0.8-0.1,1.1-0.3c0.3-0.2,0.6-0.4,0.8-0.7c0.2-0.3,0.3-0.6,0.3-1V48.2
					c0-0.4,0.1-0.7,0.3-1.1l17.6-30c0.4-0.6,0.5-1.5,0.1-2.1c-0.4-0.7-1.2-1.1-2-1H212.4z M131.3,44.4c-1.3,1.7-3,3-4.9,3.9
					c-2,1-4.2,1.4-6.4,1.4h-8.8c-0.7,0-1.1-0.3-1.1-1V25.4c0-0.6,0.4-1,1.1-1h9.3c3.8-0.1,7.4,1.5,10,4.3c2.6,2.6,3.8,6.3,3.3,10
					C133.4,40.7,132.6,42.7,131.3,44.4 M196.4,62c-0.3-0.5-0.8-0.9-1.4-1c-0.6-0.1-1.3,0-1.8,0.3c-4.8,2.5-12,5-17.4,5.7
					c-5.4,0.7-10.9,0.6-16.3-0.5c-8.4-1.4-16.4-5.1-22.9-10.6c-0.6-0.5-0.6-1,0-1.5c2.8-2.3,5-5.3,6.5-8.6c1.5-3.4,2.1-7,1.7-10.7
					c-0.4-6-3.3-11.5-8-15.2c-4.7-4-10.8-6.2-17-6.1h-18.4c-0.6,0-1.2,0.2-1.7,0.7c-0.5,0.4-0.7,1-0.7,1.6v53.2
					c0,0.6,0.3,1.2,0.7,1.6c0.5,0.4,1.1,0.7,1.7,0.7h6.3c0.6,0,1.2-0.2,1.7-0.7c0.4-0.4,0.7-1,0.7-1.6v-8c0-0.7,0.4-1,1.1-1h9.3
					c1.4,0,2.8-0.1,4.2-0.4c0.3-0.1,0.7,0.1,0.9,0.3c3.6,3.7,7.8,6.8,12.3,9.2c6.2,3.4,12.9,5.7,19.8,6.9c7,1.2,14.1,1.2,21.1,0
					c3.1-0.5,6.2-1.3,9.1-2.3c3-1,7.8-3.3,10.6-4.8c0.6-0.3,1-0.8,1.1-1.5c0.1-0.6,0-1.2-0.3-1.8L196.4,62z M26.3,61.1
					c-0.6,0-1.1-0.2-1.6-0.6C24.3,60.1,24,59.6,24,59V26.5c0-0.6,0.2-1.1,0.7-1.5c0.4-0.4,1-0.6,1.6-0.6h4.8c1.9,0,3.8,0.1,5.6,0.4
					c1.8,0.3,3.6,0.9,5.3,1.7c1.8,0.8,3.3,1.8,4.7,3.2c1.4,1.5,2.5,3.3,3.1,5.3c0.9,2.5,1.3,5.1,1.2,7.7c0,2.3-0.2,4.5-0.8,6.7
					c-0.5,1.8-1.3,3.4-2.3,4.9c-1,1.2-2.1,2.4-3.4,3.3c-1.3,0.9-2.7,1.6-4.2,2.1s-3,0.8-4.6,1.1c-1.5,0.2-3.1,0.3-4.7,0.3H26.3z
					 M31,13.8H15.2c-0.6,0-1.1,0.2-1.6,0.7c-0.4,0.4-0.7,0.9-0.7,1.5v53.6c0,0.6,0.2,1.1,0.7,1.5c0.4,0.4,1,0.6,1.6,0.6h15.9
					c9.6,0,17.2-2.6,22.8-7.7c5.6-5.2,8.3-12.2,8.3-21.2c0-9.5-3.1-16.9-9.3-22.1C47.2,16.1,40,13.8,31,13.8"/>
			</g>
		</g>
	</g>
	<g>
		<path class="st0" d="M842.7,13.9c0.1,0,0.2,0,0.3,0.1s0.1,0.2,0.1,0.3v1.1c0,0.1,0,0.2-0.1,0.3c-0.1,0.1-0.2,0.1-0.3,0.1h-2.2
			c-0.1,0-0.2,0-0.3,0.1s-0.1,0.2-0.1,0.3v8c0,0.1,0,0.2-0.1,0.3c-0.1,0.1-0.2,0.1-0.3,0.1h-1.2c-0.1,0-0.2,0-0.3-0.1
			c-0.1-0.1-0.1-0.2-0.1-0.3v-8c0-0.1,0-0.1-0.1-0.2c0-0.1-0.1-0.1-0.1-0.1c-0.1,0-0.1-0.1-0.2-0.1h-2.2c-0.1,0-0.2,0-0.3-0.1
			c-0.1-0.1-0.1-0.2-0.1-0.3v-1.1c0-0.1,0-0.2,0.1-0.3s0.2-0.1,0.3-0.1H842.7z"/>
		<path class="st0" d="M855.5,14.3l0.8,9.8c0,0.1,0,0.2-0.1,0.3s-0.2,0.1-0.3,0.1h-1.2c-0.1,0-0.2,0-0.3-0.1
			c-0.1-0.1-0.1-0.2-0.1-0.3l-0.4-5.1c0-0.1-0.1-0.1-0.2-0.2c-0.1,0-0.2,0-0.2,0.1l-2.6,4.4c-0.1,0.1-0.2,0.2-0.4,0.2
			s-0.3-0.1-0.4-0.2l-2.6-4.4c0-0.1-0.1-0.1-0.2-0.1c-0.1,0-0.1,0.1-0.2,0.2l-0.4,5.1c0,0.1-0.1,0.2-0.1,0.3
			c-0.1,0.1-0.2,0.1-0.3,0.1h-1.2c-0.1,0-0.2,0-0.3-0.1s-0.1-0.2-0.1-0.3l0.8-9.8c0-0.1,0.1-0.2,0.1-0.3s0.2-0.1,0.3-0.1h0.7
			c0.2,0,0.3,0.1,0.4,0.2l3.3,5.6c0,0.1,0.1,0.1,0.2,0.1s0.1,0,0.2-0.1l3.3-5.6c0.1-0.1,0.2-0.2,0.4-0.2h0.7c0.1,0,0.2,0,0.3,0.1
			S855.5,14.2,855.5,14.3z"/>
	</g>
</g>
</svg>
