<?xml version="1.0" encoding="utf-8"?>
<!-- Generator: Adobe Illustrator 25.0.0, SVG Export Plug-In . SVG Version: 6.00 Build 0)  -->
<svg version="1.1" id="Layer_1" xmlns="http://www.w3.org/2000/svg" xmlns:xlink="http://www.w3.org/1999/xlink" x="0px" y="0px"
	 viewBox="0 0 272.4 76.3" style="enable-background:new 0 0 272.4 76.3;" xml:space="preserve">
<style type="text/css">
	.st0{fill-rule:evenodd;clip-rule:evenodd;fill:#FFFFFF;}
	.st1{fill:#FFFFFF;}
</style>
<g>
	<g id="Mobile">
		<g id="Splash-Screen_Mobile" transform="translate(-40.000000, -151.000000)">
			<g id="logo_dryeyeland-m" transform="translate(40.000000, 151.000000)">
				<path id="eyeland" class="st0" d="M157.6,45.5l0.5,0c0.4,0,0.7,0,0.9,0h0.4c0.2,0,0.4,0,0.5,0c0.4,0,0.9,0.3,1,0.7
					c0.3,0.8,0.9,2.2,1.8,4.4c0.8,2.1,1.3,3.4,1.6,4l0,0.1l0.4,0.9l-0.1-0.2c0.9,2.2,1.3,3.3,1.3,3.3c0.6,1.3,1.3,2.6,2,3.9
					c1.9,2.8,4.2,4.8,6.8,6c2.7,1.1,5.6,1.7,8.5,1.5c0.5,0,1-0.1,1.5-0.2c0.5-0.1,1.1-0.2,1.6-0.4c0.6-0.2,1-0.4,1.4-0.5
					c0.1-0.1,0.3-0.1,0.5-0.2l0-22c0-0.3,0.1-0.5,0.3-0.7c0.2-0.1,0.4-0.2,0.6-0.3l0.1,0h1.1c0.2,0,0.5,0.1,0.7,0.2l0.1,0.1
					l14.1,15.7c0.1,0.1,0.3,0.2,0.5,0.1c0.1,0,0.3-0.2,0.3-0.3l0-0.1V46.8c0-0.2,0-0.3,0.1-0.4c0.1-0.1,0.2-0.3,0.4-0.4
					c0.1-0.1,0.2-0.1,0.4-0.1l0.1,0l3,0c0.2,0,0.4,0,0.5,0.1c0.2,0.1,0.3,0.2,0.4,0.4c0.1,0.1,0.1,0.2,0.1,0.3l0,0.1v23.9
					c0,0.3-0.1,0.5-0.3,0.7c-0.2,0.2-0.4,0.2-0.6,0.3l-0.1,0h-2.1c-0.2,0-0.5-0.1-0.7-0.3l-0.1-0.1l-13.3-14.7
					c-0.1-0.1-0.3-0.2-0.5-0.1c-0.1,0-0.3,0.2-0.3,0.3l0,0.1l0,12.7l0.1,0.1c0.1,0.2,0.2,0.4,0.2,0.7l0,0.1c0,0.2-0.1,0.4-0.3,0.6
					c0,0.1-0.1,0.2-0.2,0.3c-0.2,0.2-0.4,0.3-0.6,0.3l-0.1,0l-0.1,0c-2.7,1.3-5.5,2.2-8.5,2.7c-1.7,0.2-3.5,0.2-5.3-0.1
					c-1.9-0.3-3.7-0.9-5.5-1.6c-0.5-0.2-1.5-0.7-3-1.6c-0.6-0.4-1.2-0.8-1.7-1.2c0,0-0.1,0-0.1-0.1c0,0-0.1,0-0.1,0
					c-1.2-1-2.7-1.6-4.2-1.9l-0.4-0.1h-0.1c-3.5-0.1-6.9-0.1-10.3,0c-0.4,0-0.8,0.3-1,0.7c-0.1,0.3-0.2,0.5-0.4,0.8
					c-0.1,0.3-0.2,0.6-0.3,0.9s-0.2,0.6-0.3,0.8c-0.1,0.2-0.2,0.4-0.4,0.5c-0.2,0.1-0.4,0.2-0.6,0.2c-1,0-2.1,0-3.1,0
					c-0.9-0.1-1.2-0.5-1-1.3c2.7-7.1,5.8-15.1,9.4-24c0.1-0.4,0.5-0.7,1-0.7c0.3,0,0.6-0.1,0.9-0.1L157.6,45.5z M62.9,45.9
					c0.4,0,0.7,0.1,0.9,0.4c0.2,0.3,0.2,0.7,0,0.9l0,0l-8,13.5c-0.1,0.1-0.1,0.3-0.1,0.5l0,0v9.6c0,0.2,0,0.3-0.1,0.4
					c-0.1,0.1-0.2,0.3-0.4,0.3c-0.2,0.1-0.3,0.1-0.5,0.1l0,0h-3c-0.3,0-0.5-0.1-0.7-0.3c-0.2-0.2-0.3-0.4-0.3-0.7l0,0v-9.6
					c0-0.2,0-0.3-0.1-0.5l0,0l-8-13.5c-0.2-0.3-0.2-0.7,0-0.9c0.2-0.3,0.5-0.5,0.9-0.4l0,0h3.4c0.4,0,0.7,0.2,0.9,0.5l0,0l5.1,8.5
					c0,0.1,0.1,0.1,0.2,0.2c0.2,0.1,0.5,0,0.6-0.2l0,0l5.1-8.5c0.2-0.3,0.5-0.5,0.9-0.5l0,0L62.9,45.9z M235.2,45.8
					c4.1,0,7.3,1,9.8,3.1c2.8,2.3,4.2,5.6,4.2,9.9c0,4-1.3,7.2-3.8,9.5c-2.4,2.2-5.7,3.4-9.9,3.5l-0.4,0H228c-0.3,0-0.5-0.1-0.7-0.3
					c-0.2-0.1-0.3-0.3-0.3-0.6l0-0.1V46.8c0-0.3,0.1-0.5,0.3-0.7c0.2-0.2,0.4-0.3,0.6-0.3l0.1,0H235.2z M96,45.8
					c0.3,0,0.5,0.1,0.7,0.3c0.2,0.2,0.3,0.4,0.3,0.7l0,0v2.8c0,0.2,0,0.3-0.1,0.5c-0.1,0.1-0.2,0.3-0.4,0.4
					c-0.2,0.1-0.3,0.1-0.5,0.1l0,0l-11,0c-0.3,0-0.5,0.1-0.7,0.3C84.1,51,84,51.3,84,51.5l0,0v4.4c0,0.3,0.1,0.5,0.3,0.7
					c0.2,0.2,0.4,0.3,0.7,0.3l0,0h6.3c0.3,0,0.5,0.1,0.7,0.3c0.2,0.2,0.3,0.4,0.3,0.7l0,0v2.8c0,0.2,0,0.3-0.1,0.5
					c-0.1,0.1-0.2,0.3-0.4,0.3c-0.2,0.1-0.3,0.1-0.5,0.1l0,0H85c-0.3,0-0.5,0.1-0.7,0.3c-0.2,0.2-0.3,0.4-0.3,0.7l0,0v3.5
					c0,0.3,0.1,0.5,0.3,0.7c0.2,0.2,0.4,0.3,0.7,0.3l0,0h11c0.3,0,0.5,0.1,0.7,0.3c0.2,0.2,0.3,0.4,0.3,0.7l0,0v2.8
					c0,0.3-0.1,0.5-0.3,0.7c-0.2,0.2-0.5,0.3-0.7,0.3l0,0H80c-0.2,0-0.3,0-0.5-0.1c-0.2-0.1-0.3-0.2-0.4-0.4C79,71.2,79,71,79,70.8
					l0,0v-24c0-0.3,0.1-0.5,0.3-0.7c0.2-0.2,0.4-0.3,0.7-0.3l0,0H96z M26.3,45.8c0.3,0,0.5,0.1,0.7,0.3c0.2,0.2,0.3,0.4,0.3,0.7l0,0
					v2.8c0,0.2,0,0.3-0.1,0.5c-0.1,0.1-0.2,0.3-0.4,0.4c-0.2,0.1-0.3,0.1-0.5,0.1l0,0l-11,0c-0.3,0-0.5,0.1-0.7,0.3
					c-0.2,0.2-0.3,0.4-0.3,0.7l0,0v4.4c0,0.3,0.1,0.5,0.3,0.7c0.2,0.2,0.4,0.3,0.7,0.3l0,0h6.3c0.3,0,0.5,0.1,0.7,0.3
					c0.2,0.2,0.3,0.4,0.3,0.7l0,0v2.8c0,0.2,0,0.3-0.1,0.5c-0.1,0.1-0.2,0.3-0.4,0.4c-0.2,0.1-0.3,0.1-0.5,0.1l0,0h-6.3
					c-0.3,0-0.5,0.1-0.7,0.3c-0.2,0.2-0.3,0.4-0.3,0.7l0,0v3.5c0,0.3,0.1,0.5,0.3,0.7c0.2,0.2,0.5,0.3,0.7,0.3l0,0h11
					c0.3,0,0.5,0.1,0.7,0.3c0.2,0.2,0.3,0.4,0.3,0.7l0,0v2.8c0,0.3-0.1,0.5-0.3,0.7c-0.2,0.2-0.5,0.3-0.7,0.3l0,0h-16
					c-0.2,0-0.3,0-0.5-0.1c-0.2-0.1-0.3-0.2-0.4-0.4c-0.1-0.2-0.1-0.3-0.1-0.5l0,0v-24c0-0.3,0.1-0.5,0.3-0.7
					c0.2-0.2,0.4-0.3,0.7-0.3l0,0H26.3z M116.4,45.9c0.3,0,0.5,0.1,0.7,0.3c0.2,0.2,0.3,0.4,0.3,0.7l0,0v19.2c0,0.3,0.1,0.5,0.3,0.7
					c0.2,0.2,0.4,0.3,0.7,0.3l0,0h10.5c0.1,0,0.3,0,0.4,0.1c0.1,0.1,0.2,0.1,0.3,0.2c0.1,0.1,0.2,0.2,0.2,0.3c0,0.1,0.1,0.2,0.1,0.4
					l0,0v2.8c0,0.3-0.1,0.5-0.3,0.7c-0.2,0.2-0.5,0.3-0.7,0.3l0,0h-15.5c-0.3,0-0.5-0.1-0.7-0.3c-0.2-0.2-0.3-0.4-0.3-0.7l0,0V46.9
					c0-0.3,0.1-0.5,0.3-0.7c0.2-0.2,0.4-0.3,0.7-0.3l0,0H116.4z M235.2,50.6H233c-0.3,0-0.5,0.1-0.7,0.3c-0.2,0.1-0.3,0.3-0.3,0.6
					l0,0.1v14.6c0,0.3,0.1,0.5,0.3,0.7c0.2,0.2,0.4,0.2,0.6,0.3l0.1,0h2.2c0.7,0,1.4,0,2.1-0.2c0.7-0.1,1.4-0.3,2.1-0.5
					c0.7-0.2,1.3-0.5,1.9-0.9c0.6-0.4,1.1-0.9,1.5-1.5c0.5-0.7,0.9-1.4,1.1-2.2c0.3-1,0.4-2,0.4-3c0-1.2-0.2-2.3-0.6-3.5
					c-0.3-0.9-0.8-1.7-1.4-2.4c-0.6-0.6-1.3-1.1-2.1-1.4c-0.8-0.3-1.6-0.6-2.4-0.7C236.9,50.6,236,50.6,235.2,50.6z M158,53.5
					c-0.2,0-0.3,0.1-0.5,0.4c-0.9,2.2-2,5-3.3,8.6c-0.1,0.3,0,0.5,0.3,0.6l0.1,0h0c2.1,0,4.4,0,6.8,0c0.5,0,0.6-0.2,0.5-0.6
					c-1.1-2.8-2.2-5.7-3.4-8.6C158.4,53.6,158.2,53.5,158,53.5z"/>
				<g id="dry" transform="translate(72.000000, 0.000000)">
					<path id="Path-3" class="st0" d="M56.9,1.5c2.8,0,5.5,0.9,7.6,2.7c2.1,1.7,3.4,4.1,3.6,6.8c0.2,1.6-0.1,3.3-0.8,4.7
						c-0.6,1.5-1.6,2.8-2.9,3.8c-0.3,0.2-0.3,0.4,0,0.6c2.9,2.5,6.4,4.1,10.2,4.7c2.4,0.5,4.8,0.5,7.3,0.2c2.4-0.3,4.7-1,6.8-2.1
						c0.2-0.1,0.5-0.2,0.8-0.1l0,0l0-6.2c0-0.1,0-0.2-0.1-0.4l-0.1-0.1L81.4,3c-0.2-0.3-0.2-0.7,0-0.9c0.2-0.3,0.5-0.5,0.8-0.4h3.4
						c0.4,0,0.7,0.2,0.9,0.5l0,0l5,8.5c0.1,0.1,0.2,0.2,0.4,0.2c0.2,0,0.3-0.1,0.4-0.2l0,0l5-8.5c0.2-0.3,0.5-0.5,0.9-0.5l0,0l3.4,0
						c0.4,0,0.7,0.1,0.9,0.4c0.2,0.3,0.2,0.7,0,0.9l0,0l-7.8,13.4c-0.1,0.1-0.1,0.3-0.1,0.5l0,0v9.5c0,0.2,0,0.3-0.1,0.4
						c-0.1,0.1-0.2,0.2-0.4,0.3c-0.2,0.1-0.3,0.1-0.5,0.1l0,0h-3c-0.2,0-0.3,0-0.5-0.1c-0.9,0.4-1.8,0.8-2.8,1.1
						c-1.3,0.5-2.7,0.8-4.1,1c-3.1,0.5-6.3,0.5-9.4,0c-3.1-0.5-6.1-1.5-8.8-3.1c-2-1.1-3.9-2.5-5.5-4.1C59.3,22.1,59.2,22,59,22
						c-0.6,0.1-1.2,0.2-1.9,0.2l0,0H53c-0.3,0-0.5,0.2-0.5,0.4l0,0v3.6c0,0.3-0.1,0.5-0.3,0.7c-0.2,0.2-0.5,0.3-0.7,0.3l0,0h-2.8
						c-0.3,0-0.6-0.1-0.8-0.3c-0.2-0.2-0.3-0.4-0.3-0.7l0,0V2.5c0-0.3,0.1-0.5,0.3-0.7c0.2-0.2,0.5-0.3,0.8-0.3l0,0H56.9z M57.1,6.3
						H53c-0.3,0-0.5,0.2-0.5,0.4l0,0v10.4c0,0.3,0.2,0.4,0.5,0.4l0,0h3.9c1,0,2-0.2,2.8-0.6c0.9-0.4,1.6-1,2.2-1.7l0,0l0,0
						c0.6-0.7,0.9-1.6,1.1-2.5c0.3-1.6-0.3-3.3-1.5-4.5C60.5,6.9,58.8,6.2,57.1,6.3L57.1,6.3z"/>
					<path id="Path-5" class="st0" d="M17.3,1.5c4,0,7.2,1,9.7,3c2.8,2.3,4.2,5.6,4.2,9.8c0,4-1.2,7.1-3.7,9.4s-5.8,3.4-10.1,3.4
						l0,0h-7.1c-0.3,0-0.5-0.1-0.7-0.3c-0.2-0.2-0.3-0.4-0.3-0.7l0,0V2.5c0-0.3,0.1-0.5,0.3-0.7c0.2-0.2,0.4-0.3,0.7-0.3l0,0H17.3z
						 M17.3,6.3h-2.1c-0.3,0-0.5,0.1-0.7,0.3c-0.2,0.2-0.3,0.4-0.3,0.7l0,0v14.4c0,0.3,0.1,0.5,0.3,0.7c0.2,0.2,0.4,0.3,0.7,0.3l0,0
						l2.1,0c0.7,0,1.4,0,2.1-0.2c0.7-0.1,1.4-0.3,2-0.5c0.7-0.2,1.3-0.5,1.9-0.9c0.6-0.4,1.1-0.9,1.5-1.5c0.5-0.7,0.8-1.4,1-2.2
						c0.3-1,0.4-2,0.4-3c0-1.2-0.2-2.3-0.5-3.4c-0.3-0.9-0.8-1.7-1.4-2.4C23.7,8,23,7.6,22.2,7.2c-0.8-0.3-1.6-0.6-2.4-0.7
						C19,6.4,18.2,6.3,17.3,6.3L17.3,6.3z"/>
				</g>
			</g>
		</g>
	</g>
	<g>
		<g>
			<path class="st1" d="M259,46.3c0.1,0,0.1,0,0.1,0.1c0,0,0.1,0.1,0.1,0.1V47c0,0,0,0.1-0.1,0.1c0,0-0.1,0-0.1,0h-1
				c0,0-0.1,0-0.1,0.1c0,0-0.1,0.1-0.1,0.1v3.5c0,0,0,0.1-0.1,0.1c0,0-0.1,0.1-0.1,0.1h-0.5c0,0-0.1,0-0.1-0.1c0,0-0.1-0.1-0.1-0.1
				v-3.5c0,0,0-0.1,0-0.1c0,0,0,0-0.1-0.1c0,0-0.1,0-0.1,0h-1c-0.1,0-0.1,0-0.1,0c0,0-0.1-0.1-0.1-0.1v-0.5c0,0,0-0.1,0.1-0.1
				c0,0,0.1-0.1,0.1-0.1H259z"/>
			<path class="st1" d="M264.7,46.5l0.4,4.3c0,0.1,0,0.1,0,0.1c0,0-0.1,0.1-0.1,0.1h-0.5c0,0-0.1,0-0.1,0c0,0-0.1-0.1-0.1-0.1
				l-0.2-2.2c0,0,0-0.1-0.1-0.1c0,0-0.1,0-0.1,0l-1.1,2c0,0.1-0.1,0.1-0.2,0.1s-0.1,0-0.2-0.1l-1.1-2c0,0-0.1,0-0.1,0
				c0,0-0.1,0-0.1,0.1l-0.2,2.2c0,0,0,0.1-0.1,0.1c0,0-0.1,0-0.1,0h-0.5c-0.1,0-0.1,0-0.1-0.1c0,0-0.1-0.1,0-0.1l0.4-4.3
				c0,0,0-0.1,0.1-0.1c0,0,0.1,0,0.1,0h0.3c0.1,0,0.1,0,0.2,0.1l1.4,2.5c0,0,0,0,0.1,0s0.1,0,0.1,0l1.4-2.5c0-0.1,0.1-0.1,0.2-0.1
				h0.3c0,0,0.1,0,0.1,0C264.7,46.4,264.7,46.4,264.7,46.5z"/>
		</g>
	</g>
</g>
</svg>
