<svg width="250" height="67" xmlns="http://www.w3.org/2000/svg" xmlns:xlink="http://www.w3.org/1999/xlink"><defs><path id="a" d="M0 65.475h250v-65H0z"/></defs><g transform="translate(0 .42)" fill="none" fill-rule="evenodd"><path d="M91.237 26.918c1.67 0 3.2-.31 4.587-.928 1.387-.62 2.58-1.47 3.578-2.548a11.627 11.627 0 002.323-3.779c.552-1.44.83-2.984.83-4.628 0-1.643-.278-3.185-.83-4.627a11.624 11.624 0 00-2.323-3.78 10.847 10.847 0 00-3.578-2.546c-1.388-.62-2.917-.93-4.587-.93-1.672 0-3.2.31-4.588.93a10.826 10.826 0 00-3.577 2.547 11.618 11.618 0 00-2.324 3.779c-.553 1.442-.828 2.984-.828 4.627 0 1.644.275 3.188.828 4.628a11.625 11.625 0 002.324 3.78 10.805 10.805 0 003.577 2.547c1.388.619 2.916.928 4.588.928m0 3.153c-2.183 0-4.184-.377-6.002-1.13-1.82-.755-3.396-1.799-4.73-3.134-1.334-1.334-2.37-2.923-3.112-4.768-.74-1.846-1.111-3.847-1.111-6.004 0-2.155.37-4.155 1.111-6 .741-1.847 1.778-3.437 3.112-4.772 1.334-1.334 2.91-2.376 4.73-3.132C87.053.378 89.055 0 91.237 0s4.184.378 6.002 1.131c1.819.756 3.395 1.798 4.729 3.132 1.334 1.335 2.371 2.925 3.113 4.771.74 1.846 1.11 3.846 1.11 6.001 0 2.157-.37 4.158-1.11 6.004-.742 1.845-1.78 3.434-3.113 4.768-1.334 1.335-2.91 2.38-4.73 3.133-1.817.754-3.819 1.13-6.001 1.13m28.172-13.054L108.739.726h4.324l8.043 12.936L129.392.727h4.082l-10.67 16.29v12.327h-3.395zM151.218 5.78c-.566-.916-1.32-1.583-2.264-2a7.206 7.206 0 00-2.95-.628c-.755 0-1.495.094-2.223.283a6.613 6.613 0 00-1.96.85 4.248 4.248 0 00-1.395 1.495c-.35.619-.525 1.348-.525 2.183 0 .646.101 1.218.303 1.717.202.498.532.95.991 1.354.457.405 1.077.782 1.86 1.131.78.35 1.737.701 2.869 1.052 1.105.35 2.175.727 3.212 1.13 1.038.406 1.954.917 2.75 1.537a6.822 6.822 0 011.9 2.325c.47.93.706 2.095.706 3.496 0 1.428-.283 2.668-.848 3.718a7.796 7.796 0 01-2.244 2.608c-.93.686-2.001 1.199-3.212 1.534a13.974 13.974 0 01-3.76.506c-.836 0-1.672-.075-2.506-.221a12.076 12.076 0 01-2.405-.688 9.709 9.709 0 01-2.162-1.213 7.272 7.272 0 01-1.738-1.838l2.91-2.386a5.977 5.977 0 002.587 2.386 7.913 7.913 0 005.719.484 6.675 6.675 0 002.001-.95 5.183 5.183 0 001.455-1.556c.377-.619.566-1.334.566-2.141 0-.89-.149-1.61-.445-2.163-.297-.553-.755-1.03-1.374-1.435-.62-.405-1.402-.767-2.344-1.09-.944-.324-2.049-.702-3.315-1.133a20.905 20.905 0 01-2.829-1.111 8.671 8.671 0 01-2.243-1.536 6.564 6.564 0 01-1.496-2.183c-.363-.848-.546-1.865-.546-3.052 0-1.374.27-2.573.809-3.598a7.594 7.594 0 012.182-2.566 9.96 9.96 0 013.112-1.556A12.493 12.493 0 01146.005 0c1.616 0 3.092.249 4.425.747 1.334.5 2.526 1.369 3.577 2.608l-2.789 2.425zm29.061-1.9h-9.458v25.464h-3.395V3.88h-9.458V.727h22.31zM185.29.727h17.987V3.88h-14.59v8.973h13.62v3.152h-13.62v10.186h15.318v3.153H185.29zm28.376 12.612h3.031c.944 0 1.92-.028 2.93-.082a9.975 9.975 0 002.79-.526c.849-.295 1.55-.76 2.102-1.394.551-.632.828-1.542.828-2.728 0-1.024-.202-1.845-.606-2.465a4.095 4.095 0 00-1.597-1.436 6.807 6.807 0 00-2.222-.666 19.224 19.224 0 00-2.487-.162h-4.769v9.459zM210.271.727h7.316c1.375 0 2.741.08 4.103.243 1.36.16 2.579.511 3.657 1.05a6.631 6.631 0 012.627 2.365c.674 1.038 1.011 2.445 1.011 4.224 0 2.102-.634 3.8-1.9 5.093-1.267 1.292-3.018 2.115-5.254 2.466l8.124 13.176h-4.163l-7.76-12.853h-4.366v12.853h-3.395V.727zM82.12 50.582h4.997a7.92 7.92 0 001.834-.217 4.777 4.777 0 001.6-.701 3.644 3.644 0 001.131-1.282c.29-.535.435-1.19.435-1.966 0-.756-.15-1.4-.45-1.935a4.073 4.073 0 00-1.167-1.314 4.768 4.768 0 00-1.65-.75 7.692 7.692 0 00-1.866-.234H82.12v8.399zm-2.2-10.397h6.798c.821 0 1.683.094 2.582.283.9.187 1.722.516 2.466.982.744.467 1.355 1.104 1.833 1.917.478.81.716 1.826.716 3.049 0 1.065-.194 1.988-.583 2.765a5.42 5.42 0 01-1.566 1.915 6.718 6.718 0 01-2.267 1.117 9.647 9.647 0 01-2.682.367H82.12v11.196h-2.2V40.185zm33.123 11.795c0 1.466.232 2.832.699 4.099.467 1.265 1.133 2.365 2 3.3a9.23 9.23 0 003.149 2.197c1.232.534 2.616.8 4.148.8 1.534 0 2.915-.266 4.15-.8a9.214 9.214 0 003.148-2.197 9.772 9.772 0 002-3.3c.465-1.267.7-2.633.7-4.1 0-1.466-.235-2.832-.7-4.097-.467-1.267-1.134-2.367-2-3.3-.866-.933-1.916-1.666-3.149-2.2-1.234-.53-2.615-.8-4.149-.8-1.532 0-2.916.27-4.148.8a9.273 9.273 0 00-3.15 2.2c-.866.933-1.532 2.033-2 3.3-.466 1.265-.698 2.63-.698 4.097m-2.2 0c0-1.798.3-3.452.9-4.963.6-1.511 1.433-2.818 2.5-3.918 1.065-1.097 2.348-1.959 3.848-2.581 1.5-.622 3.148-.933 4.948-.933 1.8 0 3.45.31 4.95.933 1.498.622 2.781 1.484 3.848 2.581 1.065 1.1 1.898 2.407 2.499 3.918.599 1.511.899 3.165.899 4.963 0 1.801-.3 3.46-.899 4.983-.6 1.521-1.434 2.833-2.5 3.933-1.066 1.1-2.35 1.953-3.848 2.564-1.5.613-3.15.917-4.949.917-1.8 0-3.448-.304-4.948-.917-1.5-.61-2.783-1.464-3.849-2.564-1.066-1.1-1.9-2.412-2.5-3.933-.599-1.523-.899-3.182-.899-4.983" fill="#FFF"/><mask id="b" fill="#fff"><use xlink:href="#a"/></mask><path fill="#FFF" mask="url(#b)" d="M153.495 63.776h2.2V40.184h-2.2zm21.993-23.591h2.832l14.363 20.658h.066V40.185h2.2v23.591h-2.833l-14.361-20.66h-.067v20.66h-2.2zm44.452 2.012h-8.063v-1.999h18.327v1.999h-8.064V63.79h-2.2zM52.154 6.924C37.099.938 24.306 3.577 14.623 16.833c-6.63 9.077-6.749 22.476-.103 31.764 9.867 13.79 23.013 16.185 38.044 9.846-9.863 8.247-29.132 10.211-42.6-2.695C-2.646 43.662-3.032 23.205 9.2 10.702 22.12-2.503 41.188-1.536 52.154 6.924"/><path d="M20.192 13.466c-4.316 6.439-5.684 13.364-3.47 20.84 1.53 5.164 4.553 9.308 8.967 12.403 8.566 6.007 20.377 5.4 28.278-1.278 7.853-6.638 11.787-19.65 4.302-31.113 4.39 1.926 8.311 14.15 7.103 22.14C63.53 48.627 53.92 57.75 41.403 59.213c-11.525 1.347-23.184-5.8-27.54-16.774-4.48-11.29-.41-23.12 6.329-28.972" fill="#FFF" mask="url(#b)"/><path d="M56.207 12.507c-9.17-6.204-19.789-3.083-25.641 2.21-3.87 3.498-6.435 7.745-7.427 12.889-.988 5.125-.152 9.952 2.455 14.479-4.907-5.406-6.97-11.729-5.394-18.882 1.95-8.846 7.496-14.57 16.347-16.6 7.553-1.731 14.158.489 19.66 5.904m184.772 27.691h1.747l2.633 6.65 2.617-6.65h1.683v8.352h-1.097v-7.318h-.04l-2.878 7.318h-.65l-2.878-7.318h-.04v7.318h-1.097v-8.352zm-5.29.974h-2.697v-.974h6.486v.974h-2.692v7.378h-1.098v-7.378z" fill="#FFF" mask="url(#b)"/></g></svg>